<svg width="407" height="485" viewBox="0 0 407 485" fill="none" xmlns="http://www.w3.org/2000/svg">
<path d="M347.429 59.5475C308.968 21.1022 257.858 0 203.5 0C149.142 0 98.0321 21.1876 59.5714 59.5475C21.1107 97.9928 0 149.082 0 203.418C0 301.924 68.802 384.709 164.783 403.163V474.671C164.783 477.576 166.065 480.31 168.287 482.19C169.996 483.642 172.219 484.411 174.441 484.411C175.039 484.411 175.723 484.411 176.321 484.24C309.993 457.755 407 339.686 407 203.504C407 149.168 385.804 98.0782 347.429 59.6329V59.5475Z" fill="black"/>
<path d="M184.097 462.54V405.47C199.139 405.726 214.353 401.967 227.6 394.62C232.301 391.971 233.925 386.076 231.275 381.463C228.626 376.764 222.729 375.141 218.113 377.789C207.772 383.599 195.806 386.418 184.097 386.162V339.088C184.097 333.705 179.738 329.434 174.439 329.434H156.918L182.558 184.11H224.438L267.172 426.401C242.215 442.89 214.267 455.278 184.097 462.711V462.54Z" fill="white"/>
<path d="M182.648 87.144L203.503 70.4844L224.357 87.144H182.648Z" fill="white"/>
<path d="M222.9 106.536H184.098V135.584H222.9V106.536Z" fill="white"/>
<path d="M242.217 154.978H164.697V164.632H242.217V154.978Z" fill="white"/>
<path d="M284.694 413.672L244.182 183.94H252.046C257.43 183.94 261.703 179.583 261.703 174.286V145.238C261.703 139.856 257.345 135.584 252.046 135.584H242.388V106.537H252.046C256.148 106.537 259.823 103.974 261.191 100.044C262.558 96.1992 261.276 91.8421 258.114 89.279L209.653 50.492C206.149 47.6727 201.106 47.6727 197.517 50.492L149.056 89.279C145.808 91.8421 144.612 96.1992 145.979 100.044C147.347 103.888 151.022 106.537 155.125 106.537H164.782V135.584H155.125C149.74 135.584 145.467 139.941 145.467 145.238V174.286C145.467 179.668 149.825 183.94 155.125 183.94H162.988L135.894 337.209C135.381 340.028 136.151 342.933 138.031 345.154C139.911 347.375 142.561 348.657 145.467 348.657H164.868V383.257C79.9979 365.145 19.4863 291.245 19.4863 203.333C19.4863 154.209 38.6312 107.989 73.4168 73.2174C108.202 38.4458 154.441 19.3086 203.585 19.3086C252.729 19.3086 298.968 38.4458 333.753 73.2174C368.539 107.989 387.684 154.209 387.684 203.333C387.684 287.571 347.855 364.291 284.78 413.672H284.694Z" fill="#FFD100"/>
<path d="M199.655 259.548C193.245 259.548 188.031 264.759 188.031 271.167C188.031 277.574 193.245 282.786 199.655 282.786C206.065 282.786 211.279 277.574 211.279 271.167C211.279 264.759 206.065 259.548 199.655 259.548Z" fill="black"/>
</svg>
