<svg width="205" height="48" viewBox="0 0 205 48" fill="none" xmlns="http://www.w3.org/2000/svg">
<path d="M33.7985 5.79938C30.057 2.05784 25.0891 0 19.7989 0C14.5088 0 9.54091 2.05784 5.79938 5.79938C2.05784 9.54091 0 14.5088 0 19.7989C0 29.3918 6.69319 37.4361 16.0262 39.2341V46.1975C16.0262 46.4781 16.1509 46.7484 16.3692 46.9251C16.5355 47.0602 16.7538 47.1433 16.972 47.1433C17.0344 47.1433 17.0967 47.1433 17.1591 47.1225C30.1609 44.545 39.5979 33.0606 39.5979 19.7989C39.5979 14.5088 37.54 9.54091 33.7985 5.79938Z" fill="black"/>
<path d="M17.9172 45.0232V39.4629C19.3826 39.4941 20.8585 39.1303 22.1472 38.4028C22.6045 38.1533 22.7604 37.5713 22.511 37.1244C22.2615 36.6671 21.6795 36.5112 21.2326 36.7607C20.2245 37.3219 19.0604 37.6025 17.9276 37.5817V32.9983C17.9276 32.4787 17.5015 32.0526 16.9818 32.0526H15.2773L17.7717 17.9075H21.8458L26.0031 41.4895C23.5711 43.0901 20.8585 44.3061 17.9172 45.0232Z" fill="white"/>
<path d="M17.7715 8.48076L19.7981 6.85944L21.8248 8.48076H17.7715Z" fill="white"/>
<path d="M21.6907 10.3724H17.918V13.1994H21.6907V10.3724Z" fill="white"/>
<path d="M23.5708 15.0804H16.0254V16.0262H23.5708V15.0804Z" fill="white"/>
<path d="M27.6981 40.2735L23.7487 17.9179H24.5074C25.027 17.9179 25.4531 17.4918 25.4531 16.9721V14.1452C25.4531 13.6255 25.027 13.1994 24.5074 13.1994H23.5616V10.3725H24.5074C24.9127 10.3725 25.2661 10.123 25.4012 9.73847C25.5363 9.36432 25.4116 8.9382 25.0998 8.68877L20.3813 4.91605C20.0383 4.64583 19.5498 4.64583 19.2069 4.91605L14.4884 8.68877C14.1766 8.9382 14.0519 9.36432 14.187 9.73847C14.3221 10.1126 14.6754 10.3725 15.0808 10.3725H16.0266V13.1994H15.0808C14.5611 13.1994 14.135 13.6255 14.135 14.1452V16.9721C14.135 17.4918 14.5611 17.9179 15.0808 17.9179H15.8395L13.21 32.8424C13.158 33.1126 13.2412 33.3933 13.4179 33.6115C13.5946 33.8298 13.8648 33.9441 14.135 33.9441H16.0162V37.3115C7.75361 35.5551 1.87109 28.3526 1.87109 19.799C1.87109 15.0182 3.73147 10.518 7.11963 7.1298C10.4974 3.75203 14.9976 1.88126 19.7889 1.88126C24.5697 1.88126 29.07 3.74163 32.4581 7.1298C35.8359 10.518 37.7067 15.0078 37.7067 19.799C37.7067 27.9992 33.83 35.4615 27.6877 40.2735H27.6981Z" fill="#FFD100"/>
<path d="M19.4258 25.2659C18.8022 25.2659 18.293 25.7751 18.293 26.3987C18.293 27.0223 18.8022 27.5316 19.4258 27.5316C20.0494 27.5316 20.5587 27.0223 20.5587 26.3987C20.5587 25.7751 20.0494 25.2659 19.4258 25.2659Z" fill="black"/>
<path d="M53.3145 9.2774V27.0325H62.3646V31.1741H48.5977V9.2774H53.3145Z" fill="black"/>
<path d="M64.7227 9.71843C64.7227 8.39542 65.7197 7.28333 67.2536 7.28333C68.7876 7.28333 69.8229 8.37625 69.8229 9.71843C69.8229 11.0606 68.7684 12.1535 67.2536 12.1535C65.7389 12.1535 64.7227 11.1373 64.7227 9.71843ZM69.5929 14.4927V31.1933H64.9527V14.4927H69.5929Z" fill="black"/>
<path d="M74.1184 35.3924C74.1184 32.8806 75.729 31.0208 77.9149 29.5252C75.1538 29.1992 72.5078 27.0901 72.5078 22.4692C72.5078 16.832 75.9975 13.9751 80.8677 13.9751C82.8042 13.9751 85.5461 14.3777 87.4252 15.1639V28.8925C87.4252 29.8895 87.3676 31.8836 87.1951 32.8039C86.6966 37.214 84.2615 39.86 79.8131 39.86C76.055 39.86 74.1184 38.1535 74.1184 35.3733V35.3924ZM82.8234 24.3482V17.599C82.2674 17.3689 81.5771 17.273 80.8102 17.273C78.6435 17.273 77.1287 19.0754 77.1287 22.3541C77.1287 24.6358 77.4547 27.186 80.1582 27.186C81.6346 27.186 82.8234 26.1698 82.8234 24.3482ZM82.8809 32.152V29.2184C80.0432 30.6948 78.1641 32.4205 78.1641 34.5871C78.1641 35.9677 78.9503 36.5237 80.1774 36.5237C82.2482 36.5237 82.8809 34.7789 82.8809 32.152Z" fill="black"/>
<path d="M95.6506 8.29965V15.6049C96.6668 14.5504 98.1816 13.9943 99.773 13.9943C103.263 13.9943 105.103 15.9309 105.103 19.8616V31.1934H100.482V20.5518C100.482 18.807 100.156 17.5607 98.4116 17.5607C96.801 17.5607 95.6506 18.8837 95.6506 20.4176V31.1934H91.0488V8.29965H95.6506Z" fill="black"/>
<path d="M108.824 25.8247V8.29965H113.426V14.4928H117.74V18.0784H113.426V25.6905C113.426 27.6271 114.308 28.2023 115.535 28.2023C116.321 28.2023 117.012 27.9147 117.548 27.5695L118.641 30.5415C117.625 31.1934 115.899 31.6919 114.231 31.6919C109.265 31.6919 108.824 28.8158 108.824 25.8247Z" fill="black"/>
<path d="M125.582 9.2774V18.0015H133.884V9.2774H138.659V31.1741H133.884V22.124H125.582V31.1741H120.865V9.2774H125.582Z" fill="black"/>
<path d="M141.879 22.8909C141.879 16.0075 146.251 13.9942 149.759 13.9942C152.271 13.9942 157.141 14.7612 157.141 22.3924C157.141 28.6815 153.69 31.6918 149.242 31.6918C144.793 31.6918 141.898 28.854 141.898 22.8909H141.879ZM152.425 22.9293C152.425 19.4013 151.696 17.3688 149.529 17.3688C147.516 17.3688 146.596 19.4013 146.596 22.3732C146.596 25.3452 146.998 28.3363 149.491 28.3363C151.562 28.3363 152.425 26.3039 152.425 22.9293Z" fill="black"/>
<path d="M160.037 25.748V14.4737H164.639V25.0194C164.639 26.8218 164.926 28.1064 166.786 28.1064C168.262 28.1064 169.49 26.7259 169.49 25.3454V14.4737H174.11V28.2023L174.398 31.1743H170.506L170.237 29.3719H170.103C169.01 30.925 167.361 31.6153 165.521 31.6153C161.858 31.6153 160.018 29.6787 160.018 25.748H160.037Z" fill="black"/>
<path d="M176.585 29.9278L177.831 26.6682C178.982 27.3968 181.033 28.3172 182.701 28.3172C183.813 28.3172 184.734 27.7611 184.734 26.5723C184.734 25.2877 183.622 24.885 182.222 24.4632C179.787 23.7346 177.045 22.9101 177.045 19.4588C177.045 16.0075 179.979 13.9942 183.296 13.9942C185.827 13.9942 188.07 14.9912 189.547 16.3909L187.399 19.0561C186.057 17.9632 184.695 17.3113 183.488 17.3113C182.395 17.3113 181.513 17.8673 181.513 18.9986C181.513 20.2257 182.625 20.6859 184.139 21.1653C186.536 21.9514 189.24 22.8526 189.24 26.2464C189.24 29.8127 186.632 31.6918 182.816 31.6918C179.883 31.6918 177.448 30.6372 176.527 29.947L176.585 29.9278Z" fill="black"/>
<path d="M191.137 23.2552C191.137 18.4042 193.974 13.9942 199.362 13.9942C202.699 13.9942 204.827 15.6815 204.827 18.8261C204.827 23.7729 199.362 24.6166 195.796 24.7508C195.988 26.534 197.081 28.2021 199.554 28.2021C201.337 28.2021 202.775 27.416 203.676 26.7832L205 29.8127C204.635 30.1387 202.334 31.6535 198.979 31.6535C193.418 31.6535 191.137 28.1638 191.137 23.2169V23.2552ZM200.781 18.9411C200.781 17.8865 200.129 17.2538 199.094 17.2538C196.889 17.2538 195.738 19.2862 195.643 21.6638C197.426 21.6254 200.781 21.0694 200.781 18.9219V18.9411Z" fill="black"/>
</svg>
